<svg width="51" height="50" viewBox="0 0 51 50" fill="none" xmlns="http://www.w3.org/2000/svg">
<path fill-rule="evenodd" clip-rule="evenodd" d="M25.5 0C11.4167 0 0 11.1929 0 25C0 38.8071 11.4167 50 25.5 50C39.5833 50 51 38.8071 51 25C51 11.1929 39.5833 0 25.5 0ZM15.8367 10.8333H36.0133C37.7147 10.8333 39.1 12.175 39.1 13.8375V40L35.8627 37.2292L34.0408 35.5958L32.1135 33.8604L32.9115 36.5583H15.8367C14.1353 36.5583 12.75 35.2167 12.75 33.5542V13.8375C12.75 12.175 14.1353 10.8333 15.8367 10.8333Z" fill="white"/>
<path fill-rule="evenodd" clip-rule="evenodd" d="M30.2012 29.8793C30.2012 29.8793 29.6591 29.2522 29.2074 28.698C31.1799 28.1584 31.9328 26.9626 31.9328 26.9626C31.3154 27.3564 30.7282 27.6334 30.2012 27.823C29.4483 28.1293 28.7256 28.3334 28.0179 28.4501C26.5724 28.7126 25.2474 28.6397 24.1181 28.4355C23.2598 28.2751 22.522 28.0418 21.9047 27.8084C21.5584 27.6772 21.182 27.5168 20.8055 27.3126C20.7829 27.298 20.7604 27.2871 20.7378 27.2761C20.7152 27.2652 20.6926 27.2543 20.67 27.2397C20.6399 27.2251 20.6248 27.2105 20.6098 27.1959C20.3388 27.0501 20.1882 26.948 20.1882 26.948C20.1882 26.948 20.9109 28.1147 22.8232 28.6689C22.3715 29.223 21.8144 29.8793 21.8144 29.8793C18.4867 29.7772 17.2219 27.6626 17.2219 27.6626C17.2219 22.9668 19.3902 19.1605 19.3902 19.1605C21.5584 17.5855 23.6212 17.6293 23.6212 17.6293L23.7718 17.8043C21.0615 18.5626 19.8118 19.7147 19.8118 19.7147C19.8118 19.7147 20.143 19.5397 20.7001 19.2918C22.3112 18.6064 23.5911 18.4168 24.1181 18.373L24.1519 18.3675C24.2278 18.355 24.2952 18.3439 24.3741 18.3439C25.2926 18.2272 26.3315 18.198 27.4156 18.3147C28.846 18.4751 30.3819 18.8834 31.9478 19.7147C31.9478 19.7147 30.7583 18.6209 28.1986 17.8626L28.4094 17.6293C28.4094 17.6293 30.4722 17.5855 32.6404 19.1605C32.6404 19.1605 34.8087 22.9668 34.8087 27.6626C34.8087 27.6626 33.5288 29.7772 30.2012 29.8793ZM23.6237 23.3334C22.7722 23.3334 22.1 24.0842 22.1 25.0001C22.1 25.916 22.7871 26.6668 23.6237 26.6668C24.4752 26.6668 25.1474 25.916 25.1474 25.0001C25.1623 24.0842 24.4752 23.3334 23.6237 23.3334ZM27.5525 25.0001C27.5525 24.0842 28.2247 23.3334 29.0762 23.3334C29.9277 23.3334 30.6 24.0842 30.6 25.0001C30.6 25.916 29.9277 26.6668 29.0762 26.6668C28.2397 26.6668 27.5525 25.916 27.5525 25.0001Z" fill="white"/>
</svg>
