<svg width="52" height="50" viewBox="0 0 52 50" fill="none" xmlns="http://www.w3.org/2000/svg">
<path fill-rule="evenodd" clip-rule="evenodd" d="M26 0C11.9167 0 0.5 11.1929 0.5 25C0.5 38.8071 11.9167 50 26 50C40.0833 50 51.5 38.8071 51.5 25C51.5 11.1929 40.0833 0 26 0ZM20.3935 11.7472C21.8442 11.6825 22.3077 11.6667 26.0013 11.6667H25.997C29.6917 11.6667 30.1536 11.6825 31.6043 11.7472C33.0521 11.8122 34.0409 12.0369 34.908 12.3667C35.8033 12.707 36.5598 13.1625 37.3163 13.9042C38.0728 14.6453 38.5375 15.3892 38.886 16.2662C39.2203 17.1139 39.4498 18.0828 39.5178 19.5023C39.583 20.9245 39.6 21.379 39.6 25.0001C39.6 28.6213 39.583 29.0746 39.5178 30.4969C39.4498 31.9158 39.2203 32.8849 38.886 33.733C38.5375 34.6097 38.0728 35.3536 37.3163 36.0947C36.5607 36.8364 35.803 37.293 34.9088 37.6336C34.0435 37.9633 33.0541 38.1881 31.6062 38.2531C30.1556 38.3178 29.6934 38.3336 25.9996 38.3336C22.3063 38.3336 21.843 38.3178 20.3924 38.2531C18.9448 38.1881 17.9562 37.9633 17.0909 37.6336C16.197 37.293 15.4382 36.8364 14.6826 36.0947C13.9263 35.3536 13.4617 34.6097 13.114 33.7327C12.778 32.8849 12.5488 31.916 12.4822 30.4966C12.4164 29.0743 12.4 28.6213 12.4 25.0001C12.4 21.379 12.417 20.9243 12.4819 19.502C12.5471 18.0831 12.7766 17.1139 13.1137 16.2659C13.4622 15.3892 13.9269 14.6453 14.6834 13.9042C15.4393 13.1628 16.1981 12.7072 17.0926 12.3667C17.9574 12.0369 18.9456 11.8122 20.3935 11.7472Z" fill="white"/>
<path fill-rule="evenodd" clip-rule="evenodd" d="M24.7813 14.0695C25.0182 14.0691 25.273 14.0692 25.548 14.0694L26.0013 14.0695C29.6326 14.0695 30.063 14.0823 31.4969 14.1462C32.8229 14.2056 33.5426 14.4228 34.022 14.6053C34.6567 14.847 35.1092 15.1359 35.5849 15.6026C36.0609 16.0692 36.3556 16.5137 36.6026 17.1359C36.7888 17.6054 37.0106 18.3109 37.071 19.6109C37.1362 21.0165 37.1503 21.4387 37.1503 24.9971C37.1503 28.5555 37.1362 28.9777 37.071 30.3833C37.0104 31.6833 36.7888 32.3889 36.6026 32.8583C36.3561 33.4805 36.0609 33.9236 35.5849 34.39C35.1089 34.8567 34.657 35.1455 34.022 35.3872C33.5432 35.5706 32.8229 35.7872 31.4969 35.8467C30.0632 35.9106 29.6326 35.9244 26.0013 35.9244C22.3698 35.9244 21.9394 35.9106 20.5057 35.8467C19.1797 35.7867 18.4601 35.5694 17.9804 35.3869C17.3457 35.1453 16.8924 34.8564 16.4164 34.3897C15.9403 33.923 15.6457 33.4797 15.3986 32.8572C15.2125 32.3877 14.9906 31.6822 14.9303 30.3822C14.8651 28.9766 14.8521 28.5544 14.8521 24.9938C14.8521 21.4332 14.8651 21.0132 14.9303 19.6076C14.9909 18.3076 15.2125 17.602 15.3986 17.132C15.6451 16.5098 15.9403 16.0653 16.4164 15.5987C16.8924 15.132 17.3457 14.8431 17.9804 14.6009C18.4598 14.4176 19.1797 14.2009 20.5057 14.1412C21.7604 14.0856 22.2466 14.0689 24.7813 14.0662V14.0695ZM33.261 16.2834C32.36 16.2834 31.629 16.9992 31.629 17.8829C31.629 18.7662 32.36 19.4829 33.261 19.4829C34.162 19.4829 34.893 18.7662 34.893 17.8829C34.893 16.9995 34.162 16.2829 33.261 16.2829V16.2834ZM19.0171 25.0002C19.0171 21.2188 22.1441 18.153 26.001 18.1529C29.8581 18.1529 32.9844 21.2187 32.9844 25.0002C32.9844 28.7816 29.8584 31.8461 26.0013 31.8461C22.1443 31.8461 19.0171 28.7816 19.0171 25.0002Z" fill="white"/>
<path d="M26.0012 20.5557C28.5047 20.5557 30.5345 22.5454 30.5345 25.0002C30.5345 27.4546 28.5047 29.4446 26.0012 29.4446C23.4973 29.4446 21.4678 27.4546 21.4678 25.0002C21.4678 22.5454 23.4973 20.5557 26.0012 20.5557Z" fill="white"/>
</svg>
