<svg width="51" height="50" viewBox="0 0 51 50" fill="none" xmlns="http://www.w3.org/2000/svg">
<path fill-rule="evenodd" clip-rule="evenodd" d="M0.5 25C0.5 38.8071 11.6929 50 25.5 50C39.3071 50 50.5 38.8071 50.5 25C50.5 11.1929 39.3071 0 25.5 0C11.6929 0 0.5 11.1929 0.5 25ZM20.9167 36.4583L21.342 30.0857L21.3417 30.0854L32.9343 19.624C33.4431 19.1724 32.8232 18.9522 32.1478 19.3618L17.8409 28.3878L11.6611 26.459C10.3266 26.0504 10.317 25.1333 11.9608 24.474L36.042 15.1884C37.1419 14.6891 38.2034 15.4526 37.7835 17.1359L33.6825 36.4616C33.3961 37.8349 32.5664 38.1633 31.4167 37.529L25.1695 32.9135L22.1667 35.8333C22.1572 35.8425 22.1478 35.8517 22.1384 35.8608C21.8026 36.1878 21.5247 36.4583 20.9167 36.4583Z" fill="white"/>
</svg>
