<svg width="214" height="56" viewBox="0 0 214 56" fill="none" xmlns="http://www.w3.org/2000/svg">
<path d="M24.4172 55.999L0.0158131 42.011L0 14.0037L24.3856 0L46.9842 12.9663L43.426 19.0959L24.3856 8.15701L7.11642 18.09V37.9089L24.4172 47.8262L43.4576 36.8715L47 43.0169L24.4172 55.999Z" fill="url(#paint0_linear_1_2437)"/>
<path d="M24.4338 43.7717L12.507 36.9495L16.1931 30.5832L24.4338 35.3051L30.8069 31.6416V24.2984L24.4338 20.635L16.1931 25.3568L12.507 19.023L24.4175 12.1682L38.1793 20.065V35.8749L24.4338 43.7717Z" fill="url(#paint1_linear_1_2437)"/>
<path d="M51 38.1231V17.8762H58.0491C59.9864 17.8762 61.6487 18.567 63.0361 19.9612C64.4234 21.3553 65.1108 23.0257 65.1108 24.9726C65.1108 26.9194 64.4234 28.5898 63.0361 29.9714C61.6487 31.353 59.9865 32.0437 58.0491 32.0437H55.037V38.1227L51 38.1231ZM55.037 28L58.0491 28.0126C58.8866 28.0126 59.599 27.7112 60.1864 27.1209C60.7738 26.5306 61.0737 25.8146 61.0737 24.9732C61.0737 24.1442 60.7738 23.4283 60.1864 22.8254C59.5989 22.2226 58.8865 21.9211 58.0491 21.9211H55.037V28ZM66.8607 17.8769H70.8977V34.0667H78.9466V38.1236H66.8604L66.8607 17.8769ZM87.2959 31.4288H90.858L89.0832 27.2213L87.2959 31.4288ZM85.6459 35.0083L85.5959 35.159L84.2836 38.073H79.934L89.0702 17.5L98.2313 38.073H93.8692L92.5694 35.1464L92.5069 35.0083H85.6459ZM95.4947 17.8769H100.069L103.544 24.295L107.018 17.8769H111.605L105.556 29.0425V38.1231H101.531V29.0425L95.4947 17.8769ZM120.104 17.8769H124.441L128.153 27.4226L131.865 17.8769L135.577 27.4226L139.277 17.8769H143.627L135.578 38.5L131.828 28.465L128.153 38.5L120.104 17.8769ZM146.464 31.4288H150.026L148.251 27.2213L146.464 31.4288ZM144.814 35.0083L144.764 35.159L143.451 38.073H139.102L148.238 17.5L157.399 38.073H153.037L151.737 35.1464L151.675 35.0083H144.814ZM158.912 17.8769H162.949V34.0667H170.998V38.1236H158.912L158.912 17.8769ZM172.498 17.8769H176.535V34.0667H184.584V38.1236H172.498L172.498 17.8769ZM186.083 17.8769H198.171V21.9212H190.122V25.978H196.158V30.0223H190.122V34.0667H198.171V38.1235H186.085L186.083 17.8769ZM213.905 17.8769V21.9212H208.869V38.1232H204.832V21.9212H199.795V17.8769H213.905Z" fill="url(#paint2_linear_1_2437)"/>
<defs>
<linearGradient id="paint0_linear_1_2437" x1="282.5" y1="-38" x2="-1.01767e-05" y2="73.5" gradientUnits="userSpaceOnUse">
<stop stop-color="#EB5BE5"/>
<stop offset="1" stop-color="#6F5BEB"/>
</linearGradient>
<linearGradient id="paint1_linear_1_2437" x1="282.5" y1="-38" x2="-1.01767e-05" y2="73.5" gradientUnits="userSpaceOnUse">
<stop stop-color="#EB5BE5"/>
<stop offset="1" stop-color="#6F5BEB"/>
</linearGradient>
<linearGradient id="paint2_linear_1_2437" x1="282.5" y1="-38" x2="-1.01767e-05" y2="73.5" gradientUnits="userSpaceOnUse">
<stop stop-color="#EB5BE5"/>
<stop offset="1" stop-color="#6F5BEB"/>
</linearGradient>
</defs>
</svg>
