<svg width="24" height="24" viewBox="0 0 24 24" fill="none" xmlns="http://www.w3.org/2000/svg">
<path d="M18.5 19.5H14.5" stroke="#B0B7C3" stroke-width="1.5" stroke-linecap="round" stroke-linejoin="round"/>
<path d="M16.5 21.5V17.5" stroke="#B0B7C3" stroke-width="1.5" stroke-linecap="round" stroke-linejoin="round"/>
<path d="M11.99 21.81C10.17 21.81 8.35998 21.35 6.97998 20.43C4.55998 18.81 4.55998 16.17 6.97998 14.56C9.72998 12.72 14.24 12.72 16.99 14.56" stroke="#B0B7C3" stroke-width="1.5" stroke-linecap="round" stroke-linejoin="round"/>
<path d="M15.68 3.96C16.16 4.67 16.44 5.52 16.44 6.44C16.43 8.84 14.54 10.79 12.16 10.87C12.06 10.86 11.94 10.86 11.83 10.87C9.45 10.79 7.56 8.84 7.56 6.44C7.56 3.99 9.54 2 12 2" stroke="#B0B7C3" stroke-width="1.5" stroke-linecap="round" stroke-linejoin="round"/>
</svg>
