<svg width="19" height="20" viewBox="0 0 19 20" fill="none" xmlns="http://www.w3.org/2000/svg">
<path d="M5.35197 7.85608L8.98258 6.24247C9.14242 6.17396 9.32511 6.17396 9.47734 6.24247L13.108 7.85608C13.4277 8.0007 13.7245 7.61252 13.5038 7.33851L9.69805 2.68794C9.43926 2.36826 9.01303 2.36826 8.75425 2.68794L4.94854 7.33851C4.73543 7.61252 5.03229 8.0007 5.35197 7.85608Z" fill="#6271EB"/>
<path d="M5.35197 12.2707L8.9902 13.8843C9.15004 13.9528 9.33273 13.9528 9.48496 13.8843L13.1232 12.2707C13.4429 12.1261 13.7397 12.5142 13.519 12.7883L9.71329 17.4388C9.4545 17.7585 9.02827 17.7585 8.76948 17.4388L4.96378 12.7883C4.73544 12.5142 5.02468 12.1261 5.35197 12.2707Z" fill="#6271EB"/>
<path d="M9.0664 8.15294L5.92289 9.72089C5.64126 9.85789 5.64126 10.2613 5.92289 10.3983L9.0664 11.9662C9.17296 12.0195 9.30232 12.0195 9.40888 11.9662L12.5524 10.3983C12.834 10.2613 12.834 9.85789 12.5524 9.72089L9.40888 8.15294C9.2947 8.09966 9.17296 8.09966 9.0664 8.15294Z" fill="#6271EB"/>
</svg>
