<svg width="56" height="72" viewBox="0 0 56 72" fill="none" xmlns="http://www.w3.org/2000/svg">
<path fill-rule="evenodd" clip-rule="evenodd" d="M25.9392 0.02655C21.1888 0.593543 17.3883 2.32716 14.3903 5.29462C10.2134 9.42896 8.33637 15.0586 8.33363 23.4605L8.33311 24.8473H12.5548H16.7765L16.8446 21.9769C16.8871 20.187 16.9911 18.6853 17.121 17.9878C18.1081 12.6903 21.0001 9.3264 25.2657 8.51429C26.5546 8.26879 29.486 8.26672 30.7651 8.51029C34.0181 9.12979 36.1138 10.7549 37.6286 13.8325C38.731 16.0725 39.2416 18.8869 39.2416 22.7237V24.8473H43.4997H47.7579L47.6681 22.1059C47.5635 18.9118 47.4266 17.5953 46.9878 15.5649C46.0904 11.4131 44.2583 7.88434 41.6556 5.29436C40.2171 3.86288 39.0505 2.9993 37.4207 2.15945C34.6647 0.739323 31.9445 0.0817658 28.5475 0.0145522C27.364 -0.00879835 26.1903 -0.00350899 25.9392 0.02655ZM6.70292 27.8777C3.65745 28.5553 1.39187 30.549 0.408932 33.4163L0.051724 34.4585L0.0149471 49.4235C-0.0256121 65.9241 -0.0421754 65.5395 0.780225 67.248C1.8019 69.3705 3.45922 70.8223 5.79001 71.6358L6.83333 72H28.0911H49.3488L50.456 71.5784C53.0779 70.5801 54.895 68.6913 55.697 66.1301L56 65.1625V49.8105V34.4585L55.6317 33.4277C54.6925 30.7982 52.9185 29.0435 50.2604 28.1143L49.2184 27.75L28.3519 27.7268C11.2475 27.7078 7.3443 27.735 6.70292 27.8777ZM29.6747 41.8102C31.2432 42.271 32.7919 43.7342 33.3292 45.2632C33.6599 46.2043 33.6558 48.0355 33.3206 48.9074C32.9805 49.7927 32.2872 50.7427 31.5317 51.3586L30.8987 51.8746L30.8968 54.9968C30.8947 58.6068 30.8084 59.1738 30.1447 59.9409C28.7919 61.5044 26.4913 61.2315 25.536 59.3946C25.3093 58.9585 25.2871 58.6071 25.2871 55.4429V51.9697L24.8632 51.6499C24.0061 51.0032 23.4208 50.3042 22.9807 49.4022C21.5128 46.392 23.1131 42.8289 26.3957 41.7993C27.1162 41.5733 28.8882 41.5792 29.6747 41.8102Z" fill="#636363"/>
</svg>
