<svg width="24" height="24" viewBox="0 0 24 24" fill="none" xmlns="http://www.w3.org/2000/svg">
<path fill-rule="evenodd" clip-rule="evenodd" d="M5.99998 10.8V8.39999C5.99998 5.08629 8.68627 2.39999 12 2.39999C15.3137 2.39999 18 5.08629 18 8.39999V10.8C19.3255 10.8 20.4 11.8745 20.4 13.2V19.2C20.4 20.5255 19.3255 21.6 18 21.6H5.99998C4.67449 21.6 3.59998 20.5255 3.59998 19.2V13.2C3.59998 11.8745 4.67449 10.8 5.99998 10.8ZM15.6 8.39999V10.8H8.39998V8.39999C8.39998 6.41177 10.0118 4.79999 12 4.79999C13.9882 4.79999 15.6 6.41177 15.6 8.39999Z" fill="#B0B7C3"/>
</svg>
