<svg width="25" height="24" viewBox="0 0 25 24" fill="none" xmlns="http://www.w3.org/2000/svg">
<path d="M8.37999 12.07C8.37999 11.66 8.71999 11.32 9.12999 11.32H14.61V2.86C14.6 2.38 14.22 2 13.74 2C7.84999 2 3.73999 6.11 3.73999 12C3.73999 17.89 7.84999 22 13.74 22C14.21 22 14.6 21.62 14.6 21.14V12.81H9.12999C8.70999 12.82 8.37999 12.48 8.37999 12.07Z" fill="white"/>
<path d="M21.0401 11.54L18.2001 8.69003C17.9101 8.40003 17.4301 8.40003 17.1401 8.69003C16.8501 8.98003 16.8501 9.46003 17.1401 9.75003L18.7001 11.31H14.6001V12.81H18.6901L17.1301 14.37C16.8401 14.66 16.8401 15.14 17.1301 15.43C17.2801 15.58 17.4701 15.65 17.6601 15.65C17.8501 15.65 18.0401 15.58 18.1901 15.43L21.0301 12.58C21.3301 12.3 21.3301 11.83 21.0401 11.54Z" fill="white"/>
</svg>
