<svg width="22" height="22" viewBox="0 0 22 22" fill="none" xmlns="http://www.w3.org/2000/svg">
<path d="M9.39551 9.19413C9.39551 9.68913 9.53301 9.76246 9.84467 9.87246L10.3122 10.0375V8.47913H10.0372C9.68884 8.47913 9.39551 8.79996 9.39551 9.19413Z" fill="#6271EB"/>
<path d="M11.6875 13.5209H11.9625C12.32 13.5209 12.6042 13.2 12.6042 12.8059C12.6042 12.3109 12.4667 12.2375 12.155 12.1275L11.6875 11.9625V13.5209Z" fill="#6271EB"/>
<path d="M17.948 5.02337L16.0688 6.90254C15.9313 7.04004 15.7572 7.10421 15.583 7.10421C15.4088 7.10421 15.2347 7.04004 15.0972 6.90254C14.8313 6.63671 14.8313 6.19671 15.0972 5.93087L16.9763 4.05171C15.363 2.67671 13.2822 1.83337 10.9997 1.83337C5.93967 1.83337 1.83301 5.94004 1.83301 11C1.83301 16.06 5.93967 20.1667 10.9997 20.1667C16.0597 20.1667 20.1663 16.06 20.1663 11C20.1663 8.71754 19.323 6.63671 17.948 5.02337ZM12.6038 10.835C13.1905 11.0459 13.9788 11.4675 13.9788 12.815C13.9788 13.9609 13.0713 14.905 11.9622 14.905H11.6872V15.1342C11.6872 15.51 11.3755 15.8217 10.9997 15.8217C10.6238 15.8217 10.3122 15.51 10.3122 15.1342V14.905H10.2388C9.01967 14.905 8.02051 13.8784 8.02051 12.6134C8.02051 12.2284 8.33217 11.9167 8.70801 11.9167C9.08384 11.9167 9.39551 12.2284 9.39551 12.6042C9.39551 13.1084 9.77134 13.5209 10.2388 13.5209H10.3122V11.4859L9.39551 11.165C8.80884 10.9542 8.02051 10.5325 8.02051 9.18504C8.02051 8.03921 8.92801 7.09504 10.0372 7.09504H10.3122V6.87504C10.3122 6.49921 10.6238 6.18754 10.9997 6.18754C11.3755 6.18754 11.6872 6.49921 11.6872 6.87504V7.10421H11.7605C12.9797 7.10421 13.9788 8.13087 13.9788 9.39587C13.9788 9.77171 13.6672 10.0834 13.2913 10.0834C12.9155 10.0834 12.6038 9.77171 12.6038 9.39587C12.6038 8.89171 12.228 8.47921 11.7605 8.47921H11.6872V10.5142L12.6038 10.835Z" fill="#6271EB"/>
<path d="M20.7992 1.56754C20.7258 1.40254 20.5975 1.26504 20.4233 1.19171C20.3408 1.16421 20.2583 1.14587 20.1667 1.14587H16.5C16.1242 1.14587 15.8125 1.45754 15.8125 1.83337C15.8125 2.20921 16.1242 2.52087 16.5 2.52087H18.5075L16.9767 4.05171C17.325 4.35421 17.6458 4.67504 17.9483 5.02337L19.4792 3.49254V5.50004C19.4792 5.87587 19.7908 6.18754 20.1667 6.18754C20.5425 6.18754 20.8542 5.87587 20.8542 5.50004V1.83337C20.8542 1.74171 20.8358 1.65921 20.7992 1.56754Z" fill="url(#paint0_linear_36_2695)"/>
<defs>
<linearGradient id="paint0_linear_36_2695" x1="27.5" y1="-5.49963" x2="18.3333" y2="6.18754" gradientUnits="userSpaceOnUse">
<stop offset="0.707245" stop-color="#6271EB"/>
<stop offset="1" stop-color="#6271EB" stop-opacity="0"/>
</linearGradient>
</defs>
</svg>
