<svg width="24" height="24" viewBox="0 0 24 24" fill="none" xmlns="http://www.w3.org/2000/svg">
<path d="M0 8.4C0 3.76081 3.76081 0 8.4 0H15.6C20.2392 0 24 3.76081 24 8.4V15.6C24 20.2392 20.2392 24 15.6 24H8.4C3.76081 24 0 20.2392 0 15.6V8.4Z" fill="#677FFF"/>
<g clip-path="url(#clip0_43_1660)">
<path d="M12.2342 18.9997L6.00404 15.5027L6 8.50092L12.2261 5L17.996 8.24159L17.0875 9.77397L12.2261 7.03925L7.81696 9.52249V14.4772L12.2342 16.9566L17.0956 14.2179L18 15.7542L12.2342 18.9997Z" fill="white"/>
<path d="M12.2385 15.9429L9.19336 14.2374L10.1345 12.6458L12.2385 13.8263L13.8657 12.9104V11.0746L12.2385 10.1587L10.1345 11.3392L9.19336 9.75574L12.2343 8.04205L15.748 10.0162V13.9687L12.2385 15.9429Z" fill="white"/>
</g>
<defs>
<clipPath id="clip0_43_1660">
<rect width="12" height="14" fill="white" transform="translate(6 5)"/>
</clipPath>
</defs>
</svg>
