<svg width="20" height="20" viewBox="0 0 20 20" fill="none" xmlns="http://www.w3.org/2000/svg">
<path d="M7.50033 1.66669C5.31699 1.66669 3.54199 3.44169 3.54199 5.62502C3.54199 7.76669 5.21699 9.50002 7.40033 9.57502C7.46699 9.56669 7.53366 9.56669 7.58366 9.57502C7.60033 9.57502 7.60866 9.57502 7.62532 9.57502C7.63366 9.57502 7.63366 9.57502 7.64199 9.57502C9.77532 9.50002 11.4503 7.76669 11.4587 5.62502C11.4587 3.44169 9.68366 1.66669 7.50033 1.66669Z" fill="#936DFF"/>
<path d="M11.7338 11.7917C9.40879 10.2417 5.61712 10.2417 3.27546 11.7917C2.21712 12.5 1.63379 13.4583 1.63379 14.4833C1.63379 15.5083 2.21712 16.4583 3.26712 17.1583C4.43379 17.9417 5.96712 18.3333 7.50046 18.3333C9.03379 18.3333 10.5671 17.9417 11.7338 17.1583C12.7838 16.45 13.3671 15.5 13.3671 14.4667C13.3588 13.4417 12.7838 12.4917 11.7338 11.7917Z" fill="#936DFF"/>
<path d="M16.6588 6.11665C16.7921 7.73331 15.6421 9.14998 14.0505 9.34165C14.0421 9.34165 14.0421 9.34165 14.0338 9.34165H14.0088C13.9588 9.34165 13.9088 9.34165 13.8671 9.35831C13.0588 9.39998 12.3171 9.14165 11.7588 8.66665C12.6171 7.89998 13.1088 6.74998 13.0088 5.49998C12.9505 4.82498 12.7171 4.20831 12.3671 3.68331C12.6838 3.52498 13.0505 3.42498 13.4255 3.39165C15.0588 3.24998 16.5171 4.46665 16.6588 6.11665Z" fill="#936DFF"/>
<path d="M18.3249 13.825C18.2582 14.6333 17.7415 15.3333 16.8749 15.8083C16.0415 16.2667 14.9915 16.4833 13.9499 16.4583C14.5499 15.9167 14.8999 15.2417 14.9665 14.525C15.0499 13.4917 14.5582 12.5 13.5749 11.7083C13.0165 11.2667 12.3665 10.9167 11.6582 10.6583C13.4999 10.125 15.8165 10.4833 17.2415 11.6333C18.0082 12.25 18.3999 13.025 18.3249 13.825Z" fill="#936DFF"/>
</svg>
