<svg width="24" height="24" viewBox="0 0 24 24" fill="none" xmlns="http://www.w3.org/2000/svg">
<path d="M0 8.4C0 3.76081 3.76081 0 8.4 0H15.6C20.2392 0 24 3.76081 24 8.4V15.6C24 20.2392 20.2392 24 15.6 24H8.4C3.76081 24 0 20.2392 0 15.6V8.4Z" fill="#00BC8E"/>
<path d="M13.4634 10.4325V8.67613H17.4989V6H6.51018V8.67613H10.5461V10.4311C7.26608 10.581 4.7998 11.2276 4.7998 12.0021C4.7998 12.7766 7.26726 13.4232 10.5461 13.5741V19.2H13.4644V13.5736C16.7385 13.4232 19.1998 12.7771 19.1998 12.0033C19.1998 11.2295 16.7385 10.5834 13.4644 10.433L13.4634 10.4325ZM13.4644 13.0971V13.0956C13.3821 13.1008 12.959 13.1261 12.0171 13.1261C11.2641 13.1261 10.7343 13.1049 10.5476 13.0952V13.0975C7.64972 12.9698 5.48666 12.4675 5.48666 11.8666C5.48666 11.2656 7.64996 10.764 10.5476 10.6361V12.5972C10.7374 12.6102 11.2802 12.642 12.0295 12.642C12.9294 12.642 13.3818 12.6047 13.4649 12.5972V10.6361C16.357 10.7643 18.5151 11.267 18.5151 11.8659C18.5151 12.4647 16.3561 12.9677 13.4649 13.0959" fill="white"/>
</svg>
