<?xml version="1.0" standalone="no"?>
<!DOCTYPE svg PUBLIC "-//W3C//DTD SVG 20010904//EN"
 "http://www.w3.org/TR/2001/REC-SVG-20010904/DTD/svg10.dtd">
<svg version="1.0" xmlns="http://www.w3.org/2000/svg"
 width="146.000000pt" height="146.000000pt" viewBox="0 0 146.000000 146.000000"
 preserveAspectRatio="xMidYMid meet">
<metadata>
Created by potrace 1.14, written by Peter Selinger 2001-2017
</metadata>
<g transform="translate(0.000000,146.000000) scale(0.100000,-0.100000)"
fill="#000000" stroke="none">
<path d="M435 1272 l-310 -177 -2 -365 -3 -365 311 -175 c171 -96 317 -176
323 -178 16 -4 598 327 593 336 -38 70 -91 151 -96 148 -20 -12 -326 -185
-376 -213 -132 -74 -95 -79 -311 45 -105 60 -198 112 -205 116 -58 29 -54 8
-53 284 0 141 5 256 10 261 5 5 106 64 224 131 174 98 218 119 235 112 11 -5
101 -55 200 -112 99 -56 203 -115 231 -131 l50 -28 34 57 c18 31 40 67 47 79
14 20 8 25 -183 133 -108 61 -217 123 -242 137 -25 14 -68 39 -94 54 -27 16
-54 29 -61 29 -7 -1 -151 -80 -322 -178z"/>
<path d="M705 1110 c-27 -16 -68 -39 -90 -51 -22 -12 -67 -38 -100 -57 -33
-20 -61 -37 -63 -38 -3 -2 18 -41 65 -121 l25 -43 31 17 c18 8 67 36 109 60
l77 44 58 -32 c117 -65 111 -56 109 -161 l-1 -92 -81 -48 -82 -48 -107 60
c-59 33 -109 60 -110 60 -6 0 -97 -161 -94 -164 2 -2 73 -42 157 -89 l152 -86
58 33 c61 36 127 74 234 133 l67 38 0 205 1 205 -33 19 c-80 46 -329 186 -331
185 0 0 -23 -13 -51 -29z"/>
</g>
</svg>
