<svg width="739" height="190" viewBox="0 0 739 190" fill="none" xmlns="http://www.w3.org/2000/svg">
<g clip-path="url(#clip0_351_3381)">
<path d="M84.681 189.996L0.0548411 142.537L0 47.5124L84.5714 0L162.945 43.9929L150.605 64.7896L84.5714 27.6756L24.6803 61.3767V128.619L84.681 162.268L150.715 125.1L163 145.95L84.681 189.996Z" fill="white"/>
<path d="M84.7384 148.511L43.3752 125.364L56.1591 103.764L84.7384 119.785L106.841 107.355V82.4409L84.7384 70.0114L56.1591 86.0318L43.3752 64.5423L84.6818 41.285L132.409 68.0777V121.719L84.7384 148.511Z" fill="white"/>
</g>
<g clip-path="url(#clip1_351_3381)">
<path d="M171 131.636V109.636V83.9988V58.3615H185.068H195.564C202.315 58.3615 208.107 60.8615 212.942 65.907C217.776 70.9526 220.171 76.9979 220.171 84.0435C220.171 91.0891 217.776 97.1345 212.942 102.135C208.107 107.135 202.315 109.634 195.564 109.634H185.068V131.635L171 131.636ZM185.068 95.0001L195.564 95.0456C198.482 95.0456 200.965 93.9547 203.011 91.8184C205.058 89.682 206.104 87.0909 206.104 84.0457C206.104 81.0456 205.058 78.4548 203.011 76.273C200.964 74.0912 198.482 73.0002 195.564 73.0002H185.068V84.0003V95.0001ZM226.269 58.3641H240.337V116.956H268.385V131.638H226.268L226.269 58.3641ZM297.479 107.409H309.892L303.707 92.1818L297.479 107.409ZM291.729 120.363L291.555 120.909L286.982 131.455H284.543H283.977H274.83H271.825L303.662 57L335.585 131.455H332.58H323.434H322.824H320.385L315.855 120.863L315.637 120.363H291.726H291.729ZM326.049 58.3641H341.989L354.097 81.5915L366.205 58.3641H382.189L361.11 98.7727V131.636H347.085V98.7727L326.049 58.3641ZM411.805 58.3641H426.918L439.853 92.9102L452.789 58.3641L465.724 92.9102L478.616 58.3641H493.772L465.724 133L452.659 96.6828L439.854 133L411.805 58.3641ZM503.66 107.409H516.072L509.888 92.1818L503.66 107.409ZM497.91 120.363L497.735 120.909L493.162 131.455H490.723H490.157H481.011H478.006L509.842 57L541.766 131.455H538.76H529.614H529.004H526.565L522.036 120.863L521.818 120.363H497.906H497.91ZM547.037 58.3641H561.105V116.956H589.153V131.638H547.037L547.037 58.3641ZM594.38 58.3641H608.446V116.956H636.494V131.638H594.379L594.38 58.3641ZM641.72 58.3641H683.841V73.0006H655.792V87.6825H676.828V102.319H655.792V116.956H683.841V131.637H655.792H641.725L641.72 58.3641ZM707.053 58.3641H721.12H738.67V73.0006H721.12V131.636H707.053V73.0006H689.499V58.3641H707.053Z" fill="white"/>
</g>
<defs>
<clipPath id="clip0_351_3381">
<rect width="163" height="190" fill="white"/>
</clipPath>
<clipPath id="clip1_351_3381">
<rect width="568" height="76" fill="white" transform="translate(171 57)"/>
</clipPath>
</defs>
</svg>
